<!-- SVG sprite for social icons: Facebook, WhatsApp, Twitter -->
<svg xmlns="http://www.w3.org/2000/svg" style="display:none">
  <symbol id="icon-facebook" viewBox="0 0 32 32">
    <path fill="#fff" d="M29 0H3C1.3 0 0 1.3 0 3v26c0 1.7 1.3 3 3 3h13V20h-4v-5h4v-3.6C16 7.7 18.4 6 21.2 6c1.3 0 2.6.1 2.9.2v4h-2c-1.6 0-2 .8-2 2V15h4.5l-.5 5H20v12h9c1.7 0 3-1.3 3-3V3c0-1.7-1.3-3-3-3z"/>
  </symbol>
  <symbol id="icon-whatsapp" viewBox="0 0 32 32">
    <path fill="#fff" d="M16 0C7.2 0 0 7.2 0 16c0 2.8.7 5.5 2 7.9L0 32l8.3-2.2C11 31.3 13.5 32 16 32c8.8 0 16-7.2 16-16S24.8 0 16 0zm0 29c-2.2 0-4.3-.5-6.2-1.5l-.4-.2-4.9 1.3 1.3-4.8-.2-.4C3.5 20.3 3 18.2 3 16 3 8.8 8.8 3 16 3s13 5.8 13 13-5.8 13-13 13zm7.2-9.2c-.4-.2-2.3-1.1-2.6-1.2-.3-.1-.5-.2-.7.2-.2.4-.8 1.2-1 1.4-.2.2-.4.3-.8.1-.4-.2-1.7-.6-3.2-2-1.2-1.1-2-2.4-2.2-2.8-.2-.4 0-.6.2-.8.2-.2.4-.5.6-.7.2-.2.2-.4.3-.6.1-.2 0-.5 0-.7 0-.2-.7-1.7-1-2.3-.3-.6-.6-.5-.8-.5-.2 0-.4 0-.6 0-.2 0-.5.1-.7.3-.2.2-.9.9-.9 2.1 0 1.2.9 2.3 1 2.5.1.2 1.7 2.7 4.1 3.7 2.4 1 2.4.7 2.8.6.4-.1 1.4-.6 1.6-1.2.2-.6.2-1.1.1-1.2z"/>
  </symbol>
  <symbol id="icon-twitter" viewBox="0 0 32 32">
    <path fill="#fff" d="M32 6.1c-1.2.5-2.4.8-3.7 1 1.3-.8 2.3-2 2.8-3.4-1.2.7-2.6 1.2-4 1.5C25.7 3.7 24.1 3 22.4 3c-3.3 0-6 2.7-6 6 0 .5.1 1 .2 1.5C10.9 10.3 5.8 7.7 2.4 3.8c-.6 1-.9 2.1-.9 3.3 0 2.3 1.2 4.3 3.1 5.5-1.1 0-2.1-.3-3-.8v.1c0 3.2 2.3 5.8 5.4 6.4-.6.2-1.2.2-1.8.2-.4 0-.9 0-1.3-.1.9 2.7 3.4 4.7 6.4 4.7-2.3 1.8-5.2 2.9-8.3 2.9-.5 0-1 0-1.5-.1C2.9 28.1 6.3 29 10 29c12 0 18.6-10 18.6-18.6 0-.3 0-.5 0-.8 1.3-.9 2.3-2 3.1-3.2z"/>
  </symbol>
</svg>
